<?xml version="1.0" encoding="utf-8"?>
<!-- Generator: Adobe Illustrator 15.1.0, SVG Export Plug-In . SVG Version: 6.00 Build 0)  -->
<!DOCTYPE svg PUBLIC "-//W3C//DTD SVG 1.1//EN" "http://www.w3.org/Graphics/SVG/1.1/DTD/svg11.dtd">
<svg version="1.1" id="Layer_1" xmlns="http://www.w3.org/2000/svg" xmlns:xlink="http://www.w3.org/1999/xlink" x="0px" y="0px"
	 width="30px" height="30px" viewBox="0 0 30 30" enable-background="new 0 0 30 30" xml:space="preserve">
<g>
	<g>
		<polygon fill="#FFFFFF" points="25.353,6.585 4.648,6.585 0.563,14.472 0.563,15.528 4.648,23.416 25.353,23.416 29.437,15.528 
			29.437,14.472 		"/>
		<path fill="#261E35" d="M25.695,23.979H4.305L0,15.666v-1.331l4.305-8.313h21.39L30,14.335v1.331L25.695,23.979z M4.991,22.853
			H25.01l3.863-7.462v-0.781L25.01,7.148H4.991l-3.864,7.461v0.781L4.991,22.853z"/>
	</g>
	<g>
		<g>
			<path fill="#261E35" d="M13.002,16.49v2.465c0,1.082-0.869,1.951-1.951,1.951H6.989c-1.082,0-1.951-0.869-1.951-1.951v-7.909
				c0-1.083,0.869-1.952,1.951-1.952h4.062c1.082,0,1.951,0.869,1.951,1.952v2.199h-2.519v-1.632c0-0.106-0.071-0.178-0.177-0.178
				H7.788c-0.106,0-0.178,0.071-0.178,0.178v6.774c0,0.106,0.071,0.178,0.178,0.178h2.519c0.106,0,0.177-0.071,0.177-0.178V16.49
				H13.002z"/>
		</g>
		<g>
			<path fill="#261E35" d="M24.962,18.955c0,1.082-0.87,1.951-1.951,1.951h-4.009c-1.082,0-1.95-0.869-1.95-1.951v-1.578h2.518
				v1.011c0,0.106,0.071,0.178,0.178,0.178h2.482c0.107,0,0.178-0.071,0.178-0.178v-1.649c0-0.124-0.089-0.194-0.23-0.23
				c-0.301-0.088-1.241-0.354-3.441-0.976c-1.046-0.301-1.648-0.763-1.648-1.844v-2.643c0-1.083,0.868-1.952,1.951-1.952h3.901
				c1.082,0,1.95,0.869,1.95,1.952v1.56h-2.518v-0.992c0-0.106-0.071-0.178-0.178-0.178h-2.376c-0.106,0-0.178,0.071-0.178,0.178
				v1.525c0,0.141,0.089,0.195,0.195,0.229c0.178,0.054,1.188,0.337,3.529,0.994c1.011,0.284,1.597,0.762,1.597,1.845V18.955z"/>
		</g>
	</g>
	<g>
		<line fill="#FFFFFF" x1="15" y1="9.094" x2="15" y2="20.906"/>
		<rect x="14.437" y="9.094" fill="#261E35" width="1.127" height="11.812"/>
	</g>
</g>
</svg>
