<?xml version="1.0" encoding="utf-8"?>
<!-- Generator: Adobe Illustrator 15.1.0, SVG Export Plug-In . SVG Version: 6.00 Build 0)  -->
<!DOCTYPE svg PUBLIC "-//W3C//DTD SVG 1.1//EN" "http://www.w3.org/Graphics/SVG/1.1/DTD/svg11.dtd">
<svg version="1.1" id="Layer_1" xmlns="http://www.w3.org/2000/svg" xmlns:xlink="http://www.w3.org/1999/xlink" x="0px" y="0px"
	 width="400px" height="400px" viewBox="0 0 400 400" enable-background="new 0 0 400 400" xml:space="preserve">
<g>
	<g>
		<circle fill="#1797E5" cx="200" cy="200.001" r="152.495"/>
		<g>
			<path fill="#FFFCD5" d="M200,52.417c39.421,0,76.482,15.351,104.357,43.227c27.876,27.874,43.228,64.936,43.228,104.357
				c0,39.421-15.353,76.484-43.227,104.357c-27.875,27.875-64.937,43.227-104.357,43.227c-39.422,0-76.483-15.352-104.358-43.227
				C67.767,276.484,52.415,239.422,52.415,200c0-39.421,15.352-76.483,43.226-104.357C123.517,67.767,160.578,52.417,200,52.417
				 M200,47.505c-84.222,0-152.495,68.275-152.495,152.495c0,84.221,68.273,152.496,152.495,152.496
				c84.22,0,152.495-68.274,152.495-152.496C352.495,115.781,284.22,47.505,200,47.505L200,47.505z"/>
		</g>
		<circle fill="none" stroke="#1797E5" stroke-width="0.5642" stroke-miterlimit="10" cx="200" cy="200.001" r="152.495"/>
		<g>
			<path fill="#FFFCD5" d="M200,4.912c26.322,0,51.876,5.163,75.945,15.344c23.234,9.827,44.096,23.89,62.002,41.797
				s31.97,38.767,41.798,62.001c10.181,24.071,15.344,49.624,15.344,75.947c0,26.322-5.163,51.875-15.342,75.948
				c-9.828,23.233-23.892,44.093-41.799,62.001c-17.905,17.905-38.768,31.967-62.003,41.796
				C251.876,389.928,226.322,395.09,200,395.09s-51.877-5.162-75.947-15.345c-23.235-9.827-44.094-23.889-62.001-41.796
				c-17.906-17.906-31.97-38.768-41.797-62.001C10.073,251.876,4.911,226.322,4.911,200c0-26.323,5.162-51.876,15.343-75.946
				c9.826-23.234,23.89-44.095,41.797-62.001c17.908-17.907,38.766-31.97,62.002-41.798C148.123,10.075,173.678,4.912,200,4.912
				 M200,0c-26.984,0-53.181,5.293-77.86,15.732C98.323,25.806,76.938,40.222,58.579,58.58
				c-18.358,18.357-32.774,39.743-42.848,63.562C5.293,146.819,0,173.016,0,200s5.293,53.181,15.731,77.86
				c10.073,23.818,24.489,45.204,42.847,63.562c18.359,18.357,39.745,32.773,63.562,42.846C146.817,394.707,173.013,400,200,400
				c26.985,0,53.183-5.293,77.858-15.731c23.818-10.074,45.205-24.489,63.562-42.846c18.355-18.358,32.773-39.744,42.848-63.562
				C394.707,253.18,400,226.983,400,200s-5.293-53.178-15.731-77.859c-10.075-23.821-24.492-45.205-42.848-63.562
				c-18.356-18.357-39.742-32.773-63.562-42.847C253.179,5.294,226.983,0,200,0L200,0z"/>
		</g>
		<g>
			
				<line fill="none" stroke="#05273A" stroke-width="2.9263" stroke-linecap="round" stroke-linejoin="round" stroke-miterlimit="10" x1="99.041" y1="175.614" x2="99.041" y2="200"/>
			<g>
				<g>
					
						<path fill="#CCCCCC" stroke="#05273A" stroke-width="2.9263" stroke-linecap="round" stroke-linejoin="round" stroke-miterlimit="10" d="
						M271.695,170.25v-24.709c0-3.397-2.454-6.081-5.854-6.081c-3.397,0-5.851,2.827-5.851,6.226v24.564H271.695z"/>
					
						<line fill="none" stroke="#05273A" stroke-width="2.9263" stroke-linecap="round" stroke-linejoin="round" stroke-miterlimit="10" x1="265.843" y1="171.712" x2="265.843" y2="165.86"/>
				</g>
				<path fill="none" stroke="#ABABAA" stroke-width="1.9509" stroke-miterlimit="10" d="M270.232,168.786h-9.755v-23.102
					c0-2.795,2.168-5.069,4.876-5.069c2.756,0,4.879,2.163,4.879,4.925V168.786z"/>
				<g>
					
						<path fill="none" stroke="#05273A" stroke-width="2.9263" stroke-linecap="round" stroke-linejoin="round" stroke-miterlimit="10" d="
						M271.695,170.25v-24.709c0-3.397-2.454-6.081-5.854-6.081c-3.397,0-5.851,2.827-5.851,6.226v24.564H271.695z"/>
					
						<line fill="none" stroke="#05273A" stroke-width="2.9263" stroke-linecap="round" stroke-linejoin="round" stroke-miterlimit="10" x1="265.843" y1="171.712" x2="265.843" y2="165.86"/>
				</g>
			</g>
			<g>
				<g>
					
						<path fill="#CCCCCC" stroke="#05273A" stroke-width="2.9263" stroke-linecap="round" stroke-linejoin="round" stroke-miterlimit="10" d="
						M238.53,147.814v-24.238c0-3.398-3.428-6.082-6.828-6.082c-3.399,0-6.828,2.827-6.828,6.227v24.092H238.53z"/>
					
						<line fill="none" stroke="#05273A" stroke-width="2.9263" stroke-linecap="round" stroke-linejoin="round" stroke-miterlimit="10" x1="231.702" y1="150.253" x2="231.702" y2="143.425"/>
				</g>
				<path fill="none" stroke="#ABABAA" stroke-width="1.9509" stroke-miterlimit="10" d="M236.092,147.327h-9.755v-23.605
					c0-2.796,2.168-5.07,4.875-5.07c2.755,0,4.88,2.165,4.88,4.926V147.327z"/>
				<g>
					
						<path fill="none" stroke="#05273A" stroke-width="2.9263" stroke-linecap="round" stroke-linejoin="round" stroke-miterlimit="10" d="
						M238.53,147.814v-24.238c0-3.398-3.428-6.082-6.828-6.082c-3.399,0-6.828,2.827-6.828,6.227v24.092H238.53z"/>
					
						<line fill="none" stroke="#05273A" stroke-width="2.9263" stroke-linecap="round" stroke-linejoin="round" stroke-miterlimit="10" x1="231.702" y1="150.253" x2="231.702" y2="143.425"/>
				</g>
			</g>
			<g>
				
					<path fill="#CCCCCC" stroke="#05273A" stroke-width="2.9263" stroke-linecap="round" stroke-linejoin="round" stroke-miterlimit="10" d="
					M306.812,192.685v-24.602c0-3.398-2.942-6.081-6.341-6.081c-3.4,0-6.34,2.827-6.34,6.226v24.457H306.812z"/>
				
					<line fill="none" stroke="#05273A" stroke-width="2.9263" stroke-linecap="round" stroke-linejoin="round" stroke-miterlimit="10" x1="300.959" y1="195.123" x2="300.959" y2="188.295"/>
			</g>
			<path fill="none" stroke="#ABABAA" stroke-width="1.9509" stroke-miterlimit="10" d="M304.373,191.222h-9.755v-22.994
				c0-2.795,2.168-5.07,4.875-5.07c2.757,0,4.88,2.165,4.88,4.926V191.222z"/>
			<g>
				
					<path fill="none" stroke="#05273A" stroke-width="2.9263" stroke-linecap="round" stroke-linejoin="round" stroke-miterlimit="10" d="
					M306.812,192.685v-24.602c0-3.398-2.942-6.081-6.341-6.081c-3.4,0-6.34,2.827-6.34,6.226v24.457H306.812z"/>
				
					<line fill="none" stroke="#05273A" stroke-width="2.9263" stroke-linecap="round" stroke-linejoin="round" stroke-miterlimit="10" x1="300.959" y1="195.123" x2="300.959" y2="188.295"/>
			</g>
			
				<polygon fill="#999999" stroke="#05273A" stroke-width="2.9263" stroke-linecap="round" stroke-linejoin="round" stroke-miterlimit="10" points="
				218.046,120.119 312.664,180.811 312.664,200.488 218.046,200.488 			"/>
			
				<polygon fill="none" stroke="#8C8D8E" stroke-width="1.9509" stroke-linecap="round" stroke-linejoin="round" stroke-miterlimit="10" points="
				220.484,128.79 310.226,186.013 310.226,192.197 220.484,192.197 			"/>
			
				<line fill="none" stroke="#05273A" stroke-width="2.9263" stroke-linecap="round" stroke-linejoin="round" stroke-miterlimit="10" x1="300.959" y1="175.614" x2="300.959" y2="200"/>
			<g>
				
					<line fill="none" stroke="#05273A" stroke-width="2.9263" stroke-linecap="round" stroke-linejoin="round" stroke-miterlimit="10" x1="282.425" y1="161.958" x2="282.425" y2="200"/>
				
					<line fill="none" stroke="#05273A" stroke-width="2.9263" stroke-linecap="round" stroke-linejoin="round" stroke-miterlimit="10" x1="265.843" y1="153.179" x2="265.843" y2="200"/>
			</g>
			<g>
				
					<line fill="none" stroke="#05273A" stroke-width="2.9263" stroke-linecap="round" stroke-linejoin="round" stroke-miterlimit="10" x1="248.284" y1="141.474" x2="248.284" y2="200"/>
				
					<line fill="none" stroke="#05273A" stroke-width="2.9263" stroke-linecap="round" stroke-linejoin="round" stroke-miterlimit="10" x1="231.702" y1="129.769" x2="231.702" y2="200"/>
			</g>
			
				<rect x="213.169" y="193.66" fill="#B3B3B7" stroke="#05273A" stroke-width="2.9263" stroke-linecap="round" stroke-linejoin="round" stroke-miterlimit="10" width="99.495" height="6.828"/>
			
				<polygon fill="#B3B3B7" stroke="#05273A" stroke-width="2.9263" stroke-linecap="round" stroke-linejoin="round" stroke-miterlimit="10" points="
				218.046,120.119 312.664,180.811 312.664,185.434 218.046,125.708 			"/>
			
				<circle fill="#D3AA44" stroke="#05273A" stroke-width="2.2567" stroke-linecap="round" stroke-linejoin="round" stroke-miterlimit="10" cx="291.973" cy="183.788" r="4.795"/>
			
				<line fill="none" stroke="#05273A" stroke-width="2.9263" stroke-linecap="round" stroke-linejoin="round" stroke-miterlimit="10" x1="274.621" y1="194.148" x2="274.621" y2="200"/>
			
				<line fill="none" stroke="#05273A" stroke-width="2.9263" stroke-linecap="round" stroke-linejoin="round" stroke-miterlimit="10" x1="239.506" y1="194.148" x2="239.506" y2="200"/>
			<g>
				<g>
					
						<path fill="#CCCCCC" stroke="#05273A" stroke-width="2.9263" stroke-linecap="round" stroke-linejoin="round" stroke-miterlimit="10" d="
						M128.305,170.25v-24.709c0-3.397,2.942-6.081,6.341-6.081c3.397,0,6.34,2.827,6.34,6.226v24.564H128.305z"/>
					
						<line fill="none" stroke="#05273A" stroke-width="2.9263" stroke-linecap="round" stroke-linejoin="round" stroke-miterlimit="10" x1="134.157" y1="171.712" x2="134.157" y2="165.86"/>
				</g>
				<path fill="none" stroke="#ABABAA" stroke-width="1.9509" stroke-miterlimit="10" d="M130.743,168.786h9.755v-23.102
					c0-2.795-2.169-5.069-4.876-5.069c-2.757,0-4.879,2.163-4.879,4.925V168.786z"/>
				<g>
					
						<path fill="none" stroke="#05273A" stroke-width="2.9263" stroke-linecap="round" stroke-linejoin="round" stroke-miterlimit="10" d="
						M128.305,170.25v-24.709c0-3.397,2.942-6.081,6.341-6.081c3.397,0,6.34,2.827,6.34,6.226v24.564H128.305z"/>
					
						<line fill="none" stroke="#05273A" stroke-width="2.9263" stroke-linecap="round" stroke-linejoin="round" stroke-miterlimit="10" x1="134.157" y1="171.712" x2="134.157" y2="165.86"/>
				</g>
			</g>
			<g>
				<g>
					
						<path fill="#CCCCCC" stroke="#05273A" stroke-width="2.9263" stroke-linecap="round" stroke-linejoin="round" stroke-miterlimit="10" d="
						M162.445,147.814v-24.238c0-3.398,2.941-6.082,6.342-6.082c3.396,0,6.339,2.827,6.339,6.227v24.092H162.445z"/>
					
						<line fill="none" stroke="#05273A" stroke-width="2.9263" stroke-linecap="round" stroke-linejoin="round" stroke-miterlimit="10" x1="168.298" y1="150.253" x2="168.298" y2="143.425"/>
				</g>
				<path fill="none" stroke="#ABABAA" stroke-width="1.9509" stroke-miterlimit="10" d="M163.908,147.327h9.755v-23.605
					c0-2.796-2.169-5.07-4.878-5.07c-2.755,0-4.877,2.165-4.877,4.926V147.327z"/>
				<g>
					
						<path fill="none" stroke="#05273A" stroke-width="2.9263" stroke-linecap="round" stroke-linejoin="round" stroke-miterlimit="10" d="
						M162.445,147.814v-24.238c0-3.398,2.941-6.082,6.342-6.082c3.396,0,6.339,2.827,6.339,6.227v24.092H162.445z"/>
					
						<line fill="none" stroke="#05273A" stroke-width="2.9263" stroke-linecap="round" stroke-linejoin="round" stroke-miterlimit="10" x1="168.298" y1="150.253" x2="168.298" y2="143.425"/>
				</g>
			</g>
			
				<polygon fill="#999999" stroke="#05273A" stroke-width="2.9263" stroke-linecap="round" stroke-linejoin="round" stroke-miterlimit="10" points="
				217.07,243.236 262.916,272.442 262.916,287.303 217.07,287.303 			"/>
			
				<polygon fill="#B3B3B7" stroke="#05273A" stroke-width="2.9263" stroke-linecap="round" stroke-linejoin="round" stroke-miterlimit="10" points="
				210.242,238.033 262.916,271.559 262.916,276.183 210.242,243.621 			"/>
			<path fill="#8C8D8E" d="M220.53,252.832l38.972,24.525v1.654h-39.018v-26.337 M219.509,249.973v30.99h41.944v-4.549
				l-41.944-26.344V249.973z"/>
			<g>
				
					<line fill="none" stroke="#05273A" stroke-width="2.9263" stroke-linecap="round" stroke-linejoin="round" stroke-miterlimit="10" x1="252.187" y1="270.232" x2="252.187" y2="287.791"/>
				
					<line fill="none" stroke="#05273A" stroke-width="2.9263" stroke-linecap="round" stroke-linejoin="round" stroke-miterlimit="10" x1="239.506" y1="263.404" x2="239.506" y2="287.791"/>
			</g>
			
				<line fill="none" stroke="#05273A" stroke-width="2.9263" stroke-linecap="round" stroke-linejoin="round" stroke-miterlimit="10" x1="227.8" y1="255.601" x2="227.8" y2="280.963"/>
			<g>
				
					<path fill="#CCCCCC" stroke="#05273A" stroke-width="2.9263" stroke-linecap="round" stroke-linejoin="round" stroke-miterlimit="10" d="
					M94.164,192.685v-24.602c0-3.398,2.453-6.081,5.853-6.081c3.398,0,5.853,2.827,5.853,6.226v24.457H94.164z"/>
				
					<line fill="none" stroke="#05273A" stroke-width="2.9263" stroke-linecap="round" stroke-linejoin="round" stroke-miterlimit="10" x1="99.041" y1="195.123" x2="99.041" y2="188.295"/>
			</g>
			<path fill="none" stroke="#ABABAA" stroke-width="1.9509" stroke-miterlimit="10" d="M95.627,191.222h9.755v-22.994
				c0-2.795-2.169-5.07-4.876-5.07c-2.756,0-4.879,2.165-4.879,4.926V191.222z"/>
			<g>
				
					<path fill="none" stroke="#05273A" stroke-width="2.9263" stroke-linecap="round" stroke-linejoin="round" stroke-miterlimit="10" d="
					M94.164,192.685v-24.602c0-3.398,2.453-6.081,5.853-6.081c3.398,0,5.853,2.827,5.853,6.226v24.457H94.164z"/>
				
					<line fill="none" stroke="#05273A" stroke-width="2.9263" stroke-linecap="round" stroke-linejoin="round" stroke-miterlimit="10" x1="99.041" y1="195.123" x2="99.041" y2="188.295"/>
			</g>
			
				<polygon fill="#999999" stroke="#05273A" stroke-width="2.9263" stroke-linecap="round" stroke-linejoin="round" stroke-miterlimit="10" points="
				218.104,121.477 182.268,121.477 197.297,73.68 203.654,73.68 			"/>
			<path fill="#8C8D8E" d="M202.709,74.882l13.056,43.181h-31.147l13.925-42.919h4.385 M202.791,74.168h-4.66l-14.286,44.871h32.685
				L202.791,74.168L202.791,74.168z"/>
			
				<polygon fill="#1797E5" stroke="#05273A" stroke-width="2.9263" stroke-linecap="round" stroke-linejoin="round" stroke-miterlimit="10" points="
				212.326,115.625 188.048,115.625 194.762,93.189 206.003,93.189 			"/>
			<g>
				<polygon fill="#1797E5" points="189.963,115.137 195.82,95.628 204.9,95.628 210.416,115.137 				"/>
				<path fill="#2E7CB0" d="M204.382,95.791l5.662,19.346h-19.703l5.69-19.509h7.87 M205.114,95.628h-9.504l-6.025,19.509h21.202
					L205.114,95.628L205.114,95.628z"/>
			</g>
			
				<polygon fill="#999999" stroke="#05273A" stroke-width="2.9263" stroke-linecap="round" stroke-linejoin="round" stroke-miterlimit="10" points="
				181.954,120.119 87.336,180.811 87.336,200.488 181.954,200.488 			"/>
			
				<polygon fill="none" stroke="#8C8D8E" stroke-width="1.9509" stroke-linecap="round" stroke-linejoin="round" stroke-miterlimit="10" points="
				180.491,128.79 89.774,186.013 89.774,192.197 180.491,192.197 			"/>
			
				<polygon fill="#999999" stroke="#05273A" stroke-width="2.9263" stroke-linecap="round" stroke-linejoin="round" stroke-miterlimit="10" points="
				181.954,243.236 137.084,272.442 137.084,287.303 181.954,287.303 			"/>
			
				<polygon fill="#B3B3B7" stroke="#05273A" stroke-width="2.9263" stroke-linecap="round" stroke-linejoin="round" stroke-miterlimit="10" points="
				189.758,238.033 137.084,271.559 137.084,276.183 189.758,243.621 			"/>
			<path fill="#96969A" d="M187.319,240.969v1.694l-48.772,30.431v-0.591l48.927-31.44 M188.295,240.141l-50.724,32.052v1.915
				l50.724-31.13V240.141L188.295,240.141z"/>
			<polygon fill="none" stroke="#96969A" stroke-width="0.9754" stroke-miterlimit="10" points="211.218,242.978 211.218,240.141 
				261.94,272.193 261.94,274.107 			"/>
			<path fill="none" stroke="#05273A" stroke-width="2.2567" stroke-miterlimit="10" d="M206.523,83.319
				c0,3.399-2.755,6.155-6.156,6.155c-3.398,0-6.154-2.755-6.154-6.155"/>
			<g>
				
					<line fill="none" stroke="#05273A" stroke-width="2.9263" stroke-linecap="round" stroke-linejoin="round" stroke-miterlimit="10" x1="117.574" y1="161.958" x2="117.574" y2="200"/>
				
					<line fill="none" stroke="#05273A" stroke-width="2.9263" stroke-linecap="round" stroke-linejoin="round" stroke-miterlimit="10" x1="134.157" y1="153.179" x2="134.157" y2="200"/>
			</g>
			<g>
				
					<line fill="none" stroke="#05273A" stroke-width="2.9263" stroke-linecap="round" stroke-linejoin="round" stroke-miterlimit="10" x1="151.715" y1="141.474" x2="151.715" y2="200"/>
				
					<line fill="none" stroke="#05273A" stroke-width="2.9263" stroke-linecap="round" stroke-linejoin="round" stroke-miterlimit="10" x1="168.298" y1="129.769" x2="168.298" y2="200"/>
			</g>
			
				<polygon fill="#B3B3B7" stroke="#05273A" stroke-width="2.9263" stroke-linecap="round" stroke-linejoin="round" stroke-miterlimit="10" points="
				181.954,120.119 87.336,180.811 87.336,185.434 181.954,125.708 			"/>
			<polygon fill="none" stroke="#8A8B8E" stroke-width="0.9754" stroke-miterlimit="10" points="180.979,125.072 180.979,122.239 
				88.312,181.442 88.312,183.333 			"/>
			<polygon fill="none" stroke="#8A8B8E" stroke-width="0.9754" stroke-miterlimit="10" points="219.021,125.072 219.021,122.239 
				311.688,181.442 311.688,183.333 			"/>
			
				<circle fill="#D3AA44" stroke="#05273A" stroke-width="2.2567" stroke-linecap="round" stroke-linejoin="round" stroke-miterlimit="10" cx="108.979" cy="183.788" r="4.795"/>
			<path fill="#8C8D8E" d="M179.516,252.675v26.337h-39.018v-1.654l39.254-24.525 M181.467,250.07l-42.92,26.344v4.549h42.92v-30.99
				V250.07z"/>
			<g>
				
					<line fill="none" stroke="#05273A" stroke-width="2.9263" stroke-linecap="round" stroke-linejoin="round" stroke-miterlimit="10" x1="147.813" y1="270.232" x2="147.813" y2="287.791"/>
				
					<line fill="none" stroke="#05273A" stroke-width="2.9263" stroke-linecap="round" stroke-linejoin="round" stroke-miterlimit="10" x1="159.519" y1="263.404" x2="159.519" y2="287.791"/>
			</g>
			<g>
				
					<rect x="138.059" y="281.45" fill="#B3B3B7" stroke="#05273A" stroke-width="2.9263" stroke-linecap="round" stroke-linejoin="round" stroke-miterlimit="10" width="124.857" height="5.853"/>
				
					<line fill="none" stroke="#05273A" stroke-width="2.9263" stroke-linecap="round" stroke-linejoin="round" stroke-miterlimit="10" x1="153.666" y1="281.938" x2="153.666" y2="285.84"/>
				
					<line fill="none" stroke="#05273A" stroke-width="2.9263" stroke-linecap="round" stroke-linejoin="round" stroke-miterlimit="10" x1="245.358" y1="281.938" x2="245.358" y2="285.84"/>
			</g>
			<path fill="#96969A" d="M152.203,282.913v2.927h-12.681v-2.927H152.203 M153.179,282.913h-14.632v2.927h14.632V282.913
				L153.179,282.913z"/>
			<path fill="#96969A" d="M180.491,282.913v2.927h-25.362v-2.927H180.491 M180.491,282.913h-26.337v2.927h26.337V282.913
				L180.491,282.913z"/>
			<path fill="#96969A" d="M260.478,282.913v2.927h-13.656v-2.927H260.478 M261.453,282.913h-14.632v2.927h14.632V282.913
				L261.453,282.913z"/>
			<path fill="#96969A" d="M243.896,282.913v2.927h-24.387v-2.927H243.896 M244.87,282.913h-26.337v2.927h26.337V282.913
				L244.87,282.913z"/>
			
				<line fill="none" stroke="#05273A" stroke-width="2.9263" stroke-linecap="round" stroke-linejoin="round" stroke-miterlimit="10" x1="171.225" y1="255.601" x2="171.225" y2="280.963"/>
			
				<rect x="181.954" y="121.477" fill="#CCCCCC" stroke="#05273A" stroke-width="2.9263" stroke-linecap="round" stroke-linejoin="round" stroke-miterlimit="10" width="35.116" height="165.826"/>
			
				<rect x="213.169" y="193.66" fill="#B3B3B7" stroke="#05273A" stroke-width="2.9263" stroke-linecap="round" stroke-linejoin="round" stroke-miterlimit="10" width="99.495" height="6.828"/>
			
				<line fill="none" stroke="#05273A" stroke-width="2.9263" stroke-linecap="round" stroke-linejoin="round" stroke-miterlimit="10" x1="274.621" y1="194.148" x2="274.621" y2="200"/>
			
				<line fill="none" stroke="#05273A" stroke-width="2.9263" stroke-linecap="round" stroke-linejoin="round" stroke-miterlimit="10" x1="239.506" y1="194.148" x2="239.506" y2="200"/>
			<path fill="#8A8B8E" d="M311.201,196.099v1.951h-35.116v-1.951H311.201 M312.176,195.123h-37.066v2.927h37.066V195.123
				L312.176,195.123z"/>
			<path fill="#8A8B8E" d="M273.158,196.099v1.951h-31.214v-1.951H273.158 M274.134,195.123h-33.165v2.927h33.165V195.123
				L274.134,195.123z"/>
			<path fill="#8A8B8E" d="M238.042,196.099v1.951h-18.533v-1.951H238.042 M239.018,195.123h-19.509v2.927h19.509V195.123
				L239.018,195.123z"/>
			
				<rect x="87.336" y="193.66" fill="#B3B3B7" stroke="#05273A" stroke-width="2.9263" stroke-linecap="round" stroke-linejoin="round" stroke-miterlimit="10" width="100.471" height="6.828"/>
			
				<line fill="none" stroke="#05273A" stroke-width="2.9263" stroke-linecap="round" stroke-linejoin="round" stroke-miterlimit="10" x1="126.354" y1="194.148" x2="126.354" y2="200"/>
			
				<line fill="none" stroke="#05273A" stroke-width="2.9263" stroke-linecap="round" stroke-linejoin="round" stroke-miterlimit="10" x1="161.47" y1="194.148" x2="161.47" y2="200"/>
			<path fill="#8A8B8E" d="M124.891,196.099v1.951H89.774v-1.951H124.891 M124.891,195.123H88.799v2.927h36.092V195.123
				L124.891,195.123z"/>
			<path fill="#8A8B8E" d="M159.031,196.099v1.951h-31.215v-1.951H159.031 M159.031,195.123h-32.189v2.927h32.189V195.123
				L159.031,195.123z"/>
			<path fill="#8A8B8E" d="M180.491,196.099v1.951h-18.534v-1.951H180.491 M180.491,195.123h-18.534v2.927h18.534V195.123
				L180.491,195.123z"/>
			
				<rect x="181.954" y="121.477" fill="#999999" stroke="#05273A" stroke-width="2.9263" stroke-linecap="round" stroke-linejoin="round" stroke-miterlimit="10" width="35.116" height="165.826"/>
			<path fill="#8C8D8E" d="M215.607,123.916v159.973h-31.215V123.916H215.607 M217.558,121.965h-35.116V285.84h35.116V121.965
				L217.558,121.965z"/>
			<g>
				
					<polygon fill="#EAB82A" stroke="#05273A" stroke-width="2.9263" stroke-linecap="round" stroke-linejoin="round" stroke-miterlimit="10" points="
					199.512,327.526 199.512,327.294 182.268,287.303 191.081,287.303 199.512,287.303 				"/>
				
					<polygon fill="#E0752D" stroke="#05273A" stroke-width="2.9263" stroke-linecap="round" stroke-linejoin="round" stroke-miterlimit="10" points="
					199.512,327.526 199.512,327.294 218.104,287.303 199.512,287.303 				"/>
				
					<polygon fill="#E0752D" stroke="#05273A" stroke-width="2.9263" stroke-linecap="round" stroke-linejoin="round" stroke-miterlimit="10" points="
					200.474,327.763 200.474,327.763 182.268,287.303 191.228,287.303 				"/>
				
					<polygon fill="#EAB82A" stroke="#05273A" stroke-width="2.9263" stroke-linecap="round" stroke-linejoin="round" stroke-miterlimit="10" points="
					200.474,327.763 200.474,327.763 218.104,287.303 209.146,287.303 				"/>
			</g>
			<path fill="#333333" d="M202.927,277.848c0,1.076-0.869,2.14-1.941,2.14h-2.946c-1.073,0-1.941-1.064-1.941-2.14V239.8
				c0-1.077,0.869-1.757,1.941-1.757h2.946c1.072,0,1.941,0.68,1.941,1.757V277.848z"/>
			<g>
				<g>
					
						<line fill="none" stroke="#8C8D8E" stroke-width="1.9509" stroke-linecap="round" stroke-linejoin="round" stroke-miterlimit="10" x1="189.27" y1="127.817" x2="189.27" y2="279.012"/>
					
						<line fill="none" stroke="#8C8D8E" stroke-width="1.9509" stroke-linecap="round" stroke-linejoin="round" stroke-miterlimit="10" x1="211.705" y1="127.817" x2="211.705" y2="280.963"/>
				</g>
				
					<line fill="none" stroke="#8C8D8E" stroke-width="1.9509" stroke-linecap="round" stroke-linejoin="round" stroke-miterlimit="10" x1="200" y1="127.817" x2="200" y2="232.19"/>
			</g>
			<g>
				<g>
					
						<line fill="none" stroke="#05273A" stroke-width="2.9263" stroke-linecap="round" stroke-linejoin="round" stroke-miterlimit="10" x1="188.782" y1="127.817" x2="188.782" y2="280.963"/>
					
						<line fill="none" stroke="#05273A" stroke-width="2.9263" stroke-linecap="round" stroke-linejoin="round" stroke-miterlimit="10" x1="211.218" y1="127.817" x2="211.218" y2="280.963"/>
				</g>
				
					<line fill="none" stroke="#05273A" stroke-width="2.9263" stroke-linecap="round" stroke-linejoin="round" stroke-miterlimit="10" x1="199.512" y1="127.817" x2="199.512" y2="232.19"/>
			</g>
			
				<rect x="181.954" y="121.477" fill="none" stroke="#05273A" stroke-width="2.9263" stroke-linecap="round" stroke-linejoin="round" stroke-miterlimit="10" width="35.116" height="165.826"/>
			
				<line fill="none" stroke="#05273A" stroke-width="2.9263" stroke-linecap="round" stroke-linejoin="round" stroke-miterlimit="10" x1="113.186" y1="183.906" x2="104.406" y2="183.906"/>
			
				<line fill="none" stroke="#05273A" stroke-width="2.9263" stroke-linecap="round" stroke-linejoin="round" stroke-miterlimit="10" x1="296.569" y1="183.906" x2="286.814" y2="183.906"/>
			
				<path fill="#E8DE25" stroke="#05273A" stroke-width="1.1283" stroke-linecap="round" stroke-linejoin="round" stroke-miterlimit="10" d="
				M287.178,123.681"/>
			<path fill="#FDDE45" d="M143.709,171.852"/>
		</g>
		<g>
			
				<path fill="#EAB82A" stroke="#05273A" stroke-width="2.2567" stroke-linecap="round" stroke-linejoin="round" stroke-miterlimit="10" d="
				M379.747,124.054c-9.828-23.234-23.892-44.095-41.799-62.001s-38.768-31.969-62.003-41.797
				C251.876,10.075,226.322,4.912,200,4.912s-51.877,5.163-75.947,15.344c-23.236,9.828-44.094,23.891-62.002,41.797
				c-17.906,17.906-31.97,38.767-41.797,62.001C10.073,148.124,4.911,173.677,4.911,200c0,26.322,5.162,51.875,15.343,75.946
				c9.826,23.234,23.89,44.095,41.797,62.003c17.907,17.905,38.766,31.967,62.001,41.796c24.071,10.183,49.626,15.345,75.948,15.345
				s51.876-5.162,75.945-15.345c23.234-9.827,44.096-23.889,62.002-41.796c17.906-17.906,31.97-38.766,41.798-62.001
				c10.181-24.072,15.344-49.626,15.344-75.948C395.089,173.677,389.926,148.124,379.747,124.054z M200,352.496
				c-84.222,0-152.495-68.274-152.495-152.496c0-84.22,68.273-152.495,152.495-152.495c84.22,0,152.495,68.275,152.495,152.495
				C352.495,284.222,284.22,352.496,200,352.496z"/>
			<g>
				<path fill="#05273A" d="M61.851,109.008c0.393-0.069,0.728-0.22,1.302-1.044l0.862-1.238c1.382-1.984,1.524-2.574,1.455-2.967
					c-0.117-0.656-0.549-1.301-3.874-3.618l-10.853-7.56l2.011-2.887l10.595,7.38c4.537,3.16,5.272,4.247,5.562,5.866
					c0.251,1.4-0.448,2.788-2.101,5.16l-1.275,1.83c-1.005,1.442-2.027,2.417-3.12,2.612c-1.355,0.242-2.559-0.174-5.945-2.458
					l1.938-2.784C60.601,108.712,61.369,109.095,61.851,109.008z"/>
				<path fill="#05273A" d="M83.687,87.149L73.77,98.427L57.252,83.903l9.919-11.278l2.264,1.992l-7.593,8.637l4.555,4.003
					l6.285-7.149l2.265,1.992l-6.286,7.149l5.168,4.544l7.593-8.637L83.687,87.149z"/>
				<path fill="#05273A" d="M80.64,64.127l12.666,14.132l-2.621,2.349L78.018,66.476l-5.147,4.612l-2.013-2.246l12.916-11.577
					l2.013,2.247L80.64,64.127z"/>
				<path fill="#05273A" d="M96.923,51.385l10.976,15.479l-2.87,2.035L94.052,53.419l-5.637,3.998l-1.745-2.459l14.146-10.031
					l1.744,2.459L96.923,51.385z"/>
				<path fill="#05273A" d="M115.802,61.718l-11.251-18.896l3.023-1.801l11.251,18.896L115.802,61.718z"/>
				<path fill="#05273A" d="M138.892,49.809l-3.238,1.53c-0.824,0.388-1.217,0.366-1.921-0.241l-14.491-11.049l-0.428,0.201
					l7.352,15.569l-3.098,1.462l-9.39-19.888l3.522-1.663c0.824-0.39,1.188-0.353,1.892,0.253l13.915,10.488l0.428-0.201
					l-7.028-14.886l3.097-1.462L138.892,49.809z"/>
				<path fill="#05273A" d="M165.167,41.772l-3.488-2.308l-0.273,0.071l-0.395,1.109c-0.646,1.759-1.735,2.691-3.621,3.181
					l-2.342,0.607c-1.794,0.466-2.83,0.475-3.827-0.11c-1.073-0.63-1.745-1.721-2.591-4.977c-0.797-3.071-0.881-3.894-0.251-4.967
					c0.339-0.575,1.11-1.229,2.499-1.883l0.35-0.155c-0.571-0.696-1.015-1.653-1.394-3.112c-0.766-2.95-0.806-4.109-0.198-5.143
					c0.495-0.842,1.336-1.354,3.313-1.866l2.646-0.688c1.399-0.363,2.413-0.333,3.064,0.048c1.111,0.654,1.625,1.754,2.468,5.008
					l-3.223,0.837c-0.646-2.364-0.887-2.789-1.116-2.924c-0.23-0.135-0.521-0.125-1.22,0.058l-1.46,0.379
					c-1.003,0.26-1.193,0.407-1.352,0.675c-0.18,0.306-0.067,0.862,0.43,2.778c0.292,1.125,0.641,1.846,0.896,2.203
					c0.294,0.378,0.831,0.823,1.812,1.477l4.001,2.533l0.244-0.062l1.837-4.925l3.681-0.955l-2.966,7.587l6.793,4.405
					L165.167,41.772z M158.286,39.403l0.595-1.583l-5.503-3.44l-0.796,0.433c-0.478,0.287-0.818,0.602-0.998,0.909
					c-0.18,0.307-0.206,0.833,0.3,2.779c0.592,2.281,0.878,2.759,1.3,3.006c0.345,0.203,0.772,0.223,1.959-0.085l0.881-0.23
					C157.21,40.884,157.884,40.482,158.286,39.403z"/>
				<path fill="#05273A" d="M182.06,20.013l0.547,6.576l8.454-0.704l0.251,3.006l-8.455,0.704l0.776,9.331l-3.508,0.292
					l-1.822-21.92l14.123-1.174l0.25,3.006L182.06,20.013z"/>
				<path fill="#05273A" d="M200.489,35.095l10.651,0.204l-0.059,3.017l-14.169-0.271l0.42-21.992l3.519,0.067L200.489,35.095z"/>
				<path fill="#05273A" d="M221.434,30.662l-1.003,8.739L216.935,39l0.992-8.646l-6.164-14.083l3.84,0.44l4.379,10.336l0.25,0.029
					l6.513-9.087l3.776,0.433L221.434,30.662z"/>
				<path fill="#05273A" d="M252.529,45.625c-0.817,0.449-1.849,0.508-3.538,0.015l-7.089-2.069
					c-1.659-0.484-2.562-0.978-3.031-1.835c-0.621-1.129-0.592-2.234,0.475-6.113l3.348,0.978c-0.705,2.642-0.774,3.211-0.603,3.522
					c0.129,0.234,0.326,0.456,1.23,0.719l5.941,1.734c0.874,0.256,1.173,0.244,1.483,0.073c0.352-0.192,0.649-0.989,1.17-2.768
					c0.447-1.539,0.559-2.03,0.323-2.459c-0.17-0.312-0.445-0.491-1.273-0.797l-6.458-2.54c-1.495-0.599-2.312-1.165-2.76-1.983
					c-0.599-1.091-0.458-2.131,0.352-4.906c0.791-2.713,1.45-3.962,2.698-4.646c0.819-0.447,1.881-0.499,3.479-0.031l6.515,1.902
					c1.658,0.484,2.562,0.977,3.031,1.833c0.62,1.13,0.548,2.158-0.431,5.962l-3.349-0.978c0.662-2.491,0.729-3.06,0.56-3.372
					c-0.129-0.233-0.325-0.455-1.231-0.718l-5.339-1.559c-0.844-0.247-1.142-0.235-1.454-0.064
					c-0.351,0.192-0.657,1.019-1.124,2.618c-0.431,1.478-0.551,2-0.316,2.428c0.172,0.311,0.465,0.429,1.282,0.766l6.46,2.54
					c1.412,0.543,2.259,1.118,2.708,1.936c0.576,1.051,0.517,2.147-0.318,5.013C254.417,43.753,253.776,44.942,252.529,45.625z"/>
				<path fill="#05273A" d="M276.002,32.517c1.902,0.825,2.535,1.339,2.936,2.232c0.686,1.497,0.74,3.268-2.211,10.068
					c-2.951,6.803-4.28,7.972-5.842,8.494c-0.925,0.316-1.733,0.207-3.637-0.62l-5.764-2.5c-1.902-0.826-2.535-1.339-2.937-2.232
					c-0.687-1.496-0.739-3.267,2.212-10.068c2.951-6.802,4.28-7.972,5.841-8.493c0.926-0.317,1.733-0.207,3.637,0.619
					L276.002,32.517z M261.728,46.631c0.142,0.302,0.323,0.518,1.303,0.943l5.071,2.201c0.969,0.454,1.262,0.41,1.58,0.308
					c0.441-0.15,1.233-0.87,3.76-6.69c2.526-5.823,2.51-6.891,2.317-7.317c-0.143-0.302-0.323-0.517-1.303-0.942l-5.073-2.201
					c-0.979-0.426-1.261-0.411-1.578-0.308c-0.441,0.15-1.233,0.869-3.759,6.69C261.52,45.137,261.535,46.206,261.728,46.631z"/>
				<path fill="#05273A" d="M288.868,63.462c-0.957,0.199-1.745-0.012-3.528-1.071l-5.243-3.109
					c-1.783-1.058-2.346-1.647-2.631-2.583c-0.493-1.57-0.325-3.333,3.458-9.71s5.249-7.372,6.863-7.692
					c0.957-0.199,1.745,0.013,3.529,1.07l5.242,3.11c1.782,1.058,2.346,1.647,2.632,2.583c0.493,1.57,0.242,3.102-1.644,6.404
					l-3.027-1.795c1.329-2.426,1.486-3.246,1.351-3.692c-0.104-0.317-0.258-0.553-1.175-1.098l-4.595-2.725
					c-0.918-0.545-1.198-0.565-1.525-0.504c-0.459,0.094-1.334,0.708-4.571,6.165c-3.237,5.46-3.356,6.522-3.219,6.969
					c0.103,0.317,0.256,0.553,1.173,1.099l4.596,2.724c0.903,0.573,1.198,0.565,1.526,0.504c0.459-0.093,1.021-0.49,2.77-3.252
					l3.054,1.81C291.541,62.345,290.484,63.142,288.868,63.462z"/>
				<path fill="#05273A" d="M292.725,67.297l12.805-17.88l2.861,2.049l-12.807,17.881L292.725,67.297z"/>
				<path fill="#05273A" d="M311.053,81.967l-11.431-9.743l14.268-16.738l11.432,9.742l-1.958,2.296l-8.752-7.459l-3.934,4.615
					l7.245,6.176l-1.956,2.296l-7.246-6.176l-4.463,5.237l8.753,7.459L311.053,81.967z"/>
				<path fill="#05273A" d="M333.038,77.497l-13.833,12.989l-2.409-2.565l13.833-12.989l-4.73-5.038l2.197-2.065l11.872,12.642
					l-2.198,2.065L333.038,77.497z"/>
				<path fill="#05273A" d="M337.697,99.146l-7.04,5.277l-2.11-2.816l6.964-5.221l5.998-14.156l2.317,3.092l-4.5,10.286l0.15,0.201
					l11.078-1.513l2.28,3.042L337.697,99.146z"/>
			</g>
			<g>
				<path fill="#05273A" d="M162.089,380.816l-3.567-0.989l5.161-18.621l-0.469-0.131l-9.992,16.237
					c-0.477,0.745-0.646,0.867-1.49,0.632l-2.253-0.625c-0.845-0.233-0.958-0.434-0.952-1.309l-0.123-19.376l-0.469-0.131
					l-5.247,18.934l-3.411-0.946l6.072-21.907l5.445,1.51c0.876,0.244,1.078,0.603,1.073,1.477l-0.058,17.475l0.469,0.131
					l8.914-15.02c0.445-0.752,0.773-0.965,1.649-0.723l5.319,1.476L162.089,380.816z"/>
				<path fill="#05273A" d="M168.487,381.652l3.638-22.438l3.591,0.583l-3.638,22.438L168.487,381.652z"/>
				<path fill="#05273A" d="M193.951,383.462c-0.794,0.629-1.619,0.797-3.758,0.646l-6.283-0.448
					c-2.138-0.152-2.932-0.437-3.629-1.169c-1.183-1.224-1.843-2.931-1.298-10.575c0.544-7.646,1.438-9.242,2.782-10.284
					c0.793-0.629,1.619-0.797,3.758-0.645l6.282,0.447c2.139,0.151,2.933,0.436,3.629,1.169c1.184,1.224,1.66,2.755,1.445,6.68
					l-3.628-0.259c0.105-2.858-0.128-3.687-0.462-4.037c-0.243-0.246-0.493-0.393-1.595-0.471l-5.506-0.393
					c-1.102-0.078-1.37,0.033-1.646,0.241c-0.38,0.3-0.905,1.271-1.37,7.813c-0.466,6.543-0.083,7.579,0.251,7.93
					c0.243,0.244,0.492,0.393,1.594,0.471l5.506,0.391c1.101,0.11,1.37-0.032,1.646-0.24c0.381-0.299,0.718-0.926,1.055-4.288
					l3.66,0.261C195.902,381.192,195.294,382.419,193.951,383.462z"/>
				<path fill="#05273A" d="M212.572,364.268l0.634,6.792l8.73-0.815l0.289,3.104l-8.73,0.814l0.899,9.636l-3.622,0.338
					l-2.111-22.634l14.583-1.361l0.289,3.104L212.572,364.268z"/>
				<path fill="#05273A" d="M234.212,378.008l10.776-2.236l0.633,3.053l-14.336,2.974l-4.616-22.253l3.56-0.739L234.212,378.008z"/>
				<path fill="#05273A" d="M254.409,352.251c2.033-0.68,2.875-0.723,3.8-0.312c1.562,0.674,2.825,1.998,5.258,9.264
					c2.433,7.267,2.218,9.084,1.377,10.563c-0.491,0.883-1.188,1.356-3.221,2.036l-6.158,2.061c-2.03,0.68-2.872,0.722-3.799,0.313
					c-1.561-0.676-2.825-2-5.257-9.267c-2.432-7.266-2.217-9.083-1.378-10.562c0.492-0.883,1.19-1.356,3.221-2.036L254.409,352.251z
					 M253.193,372.961c0.317,0.134,0.604,0.174,1.652-0.177l5.419-1.814c1.057-0.319,1.251-0.555,1.426-0.854
					c0.235-0.421,0.348-1.52-1.733-7.739s-2.832-7.03-3.272-7.224c-0.319-0.134-0.608-0.174-1.653,0.177l-5.419,1.812
					c-1.047,0.351-1.252,0.556-1.427,0.854c-0.234,0.423-0.346,1.521,1.733,7.74C252.002,371.956,252.751,372.766,253.193,372.961z"
					/>
			</g>
		</g>
	</g>
	
		<path fill="none" stroke="#05273A" stroke-width="2.0008" stroke-linecap="round" stroke-linejoin="round" stroke-miterlimit="10" d="
		M267.334,359.366"/>
	
		<path fill="none" stroke="#05273A" stroke-width="2.4555" stroke-linecap="round" stroke-linejoin="round" stroke-miterlimit="10" d="
		M286.293,350.398c52.033-29.921,87.071-86.067,87.071-150.398c0-29.522-7.518-57.313-20.532-81.644"/>
	
		<path fill="none" stroke="#05273A" stroke-width="2.4555" stroke-linecap="round" stroke-linejoin="round" stroke-miterlimit="10" d="
		M47.035,118.356c-13.015,24.331-20.4,52.122-20.4,81.644c0,64.331,35.037,120.477,87.072,150.398"/>
</g>
</svg>
