<?xml version="1.0" encoding="utf-8"?>
<!-- Generator: Adobe Illustrator 15.1.0, SVG Export Plug-In . SVG Version: 6.00 Build 0)  -->
<!DOCTYPE svg PUBLIC "-//W3C//DTD SVG 1.1//EN" "http://www.w3.org/Graphics/SVG/1.1/DTD/svg11.dtd">
<svg version="1.1" id="Layer_1" xmlns="http://www.w3.org/2000/svg" xmlns:xlink="http://www.w3.org/1999/xlink" x="0px" y="0px"
	 width="30px" height="30px" viewBox="0 0 30 30" enable-background="new 0 0 30 30" xml:space="preserve">
<g>
	<path fill="#21A6CA" d="M30,15c0,8.284-6.715,15-15,15S0,23.284,0,15S6.716,0,15,0S30,6.716,30,15"/>
	<path fill="#FFFFFF" d="M21.893,7.582h3.066c0.117,0,0.213-0.096,0.213-0.213V6.886c0-0.117-0.096-0.212-0.213-0.212h-3.854
		c-0.098,0-0.219,0.06-0.279,0.138l-5.885,7.735L9.52,14.546l-0.092-0.091V7.704L9.52,7.612h3.076c0.117,0,0.212-0.095,0.212-0.212
		V6.886c0-0.117-0.095-0.212-0.212-0.212H5.363c-0.117,0-0.212,0.095-0.212,0.212v0.483c0,0.117,0.095,0.213,0.212,0.213h3.065
		L8.52,7.674v14.651l-0.091,0.092H5.363c-0.117,0-0.212,0.096-0.212,0.213v0.483c0,0.117,0.095,0.213,0.212,0.213h3.853
		c0.1,0,0.22-0.06,0.28-0.139l5.897-7.734l5.411-0.001l0.092,0.092v6.751l-0.092,0.092h-3.076c-0.117,0-0.213,0.096-0.213,0.213
		v0.514c0,0.117,0.096,0.213,0.213,0.213h7.232c0.117,0,0.213-0.096,0.213-0.213V22.63c0-0.117-0.096-0.213-0.213-0.213h-3.066
		l-0.09-0.091V7.674L21.893,7.582z M20.895,8.231v6.225l-0.092,0.091h-4.719L20.895,8.231z M14.25,15.453l-4.822,6.304v-6.212
		l0.092-0.091L14.25,15.453z"/>
</g>
</svg>
